# xmcd
#
# Track frame offsets:
#	150
#	19805
#	32360
#	43080
#	68287
#	80172
#	97357
#	104172
#	120645
#	137507
#	150472
#	187507
#	203757
#	222362
#
# Disc length: 3408
#
# Revision: 1
# Processed by: cddbd v1.5.1PL0 Copyright (c) Steve Scherf et al.
# Submitted via: CDex 1.60beta1
# Normalized: r0:DSETVAR1
#
DISCID=b90d4e0e
DTITLE=Various Artist - Rogers And Hart SongBook
DYEAR=1998
DGENRE=Jazz
TTITLE0=Carmen McRae - My Funny Valentine
TTITLE1=John Coltrane - It's Easy To Remember
TTITLE2=Louis Armstrong - Lover
TTITLE3=John Coltrane and Johnny Hartman - You Are Too Beautiful
TTITLE4=Carmen McRae - You Took Advantage Of Me
TTITLE5=McCoy Tyner - Have You Met Miss Jones
TTITLE6=Lorez Alexandria - Dancing On The Ceiling
TTITLE7=Johnny Hartman - It Never Entered My Mind
TTITLE8=Sonny Rollins - Blue Room
TTITLE9=Chico Hamilton - My Romance
TTITLE10=McCoy Tyner - My Funny Valentine
TTITLE11=Al Grey - Bewitched
TTITLE12=Art Farmer - Nobody's Heart
TTITLE13=Sonny Stitt - The Lady Is A Tramp
EXTD=YEAR: 1998
EXTT0=
EXTT1=
EXTT2=
EXTT3=
EXTT4=
EXTT5=
EXTT6=
EXTT7=
EXTT8=
EXTT9=
EXTT10=
EXTT11=
EXTT12=
EXTT13=
PLAYORDER=
